<mxfile host="app.diagrams.net" modified="2023-06-01T09:19:07.006Z" agent="Mozilla/5.0 (Windows NT 10.0; Win64; x64) AppleWebKit/537.36 (KHTML, like Gecko) Chrome/93.0.4577.82 Safari/537.36" version="21.3.6" etag="ev0Iw2N482FTkOdFjTpc" type="github">
  <diagram name="PÃ¡gina-1" id="uqcKvw1EdFWnBVs4XfPW">
    <mxGraphModel>
      <root>
        <mxCell id="0" />
        <mxCell id="1" parent="0" />
      </root>
    </mxGraphModel>
  </diagram>
</mxfile>
